<svg width="34" height="34" viewBox="0 0 34 34" fill="none" xmlns="http://www.w3.org/2000/svg">
<path d="M2.83398 9.21094C2.83398 5.69012 5.68817 2.83594 9.20898 2.83594C12.7298 2.83594 15.584 5.69012 15.584 9.21094V13.4609C15.584 13.955 15.584 14.202 15.5297 14.4047C15.3823 14.9547 14.9527 15.3843 14.4027 15.5316C14.2001 15.5859 13.953 15.5859 13.459 15.5859H9.20898C5.68817 15.5859 2.83398 12.7318 2.83398 9.21094Z" fill="#CE7D63"/>
<path d="M18.4173 20.5443C18.4173 20.0502 18.4173 19.8032 18.4716 19.6005C18.619 19.0505 19.0486 18.6209 19.5986 18.4736C19.8012 18.4193 20.0483 18.4193 20.5423 18.4193H24.7923C28.3131 18.4193 31.1673 21.2735 31.1673 24.7943C31.1673 28.3151 28.3131 31.1693 24.7923 31.1693C21.2715 31.1693 18.4173 28.3151 18.4173 24.7943V20.5443Z" fill="#CE7D63"/>
<path d="M2.83398 24.7943C2.83398 21.2735 5.68817 18.4193 9.20898 18.4193H13.034C13.9266 18.4193 14.3729 18.4193 14.7138 18.593C15.0137 18.7458 15.2575 18.9896 15.4103 19.2895C15.584 19.6304 15.584 20.0767 15.584 20.9693V24.7943C15.584 28.3151 12.7298 31.1693 9.20898 31.1693C5.68817 31.1693 2.83398 28.3151 2.83398 24.7943Z" fill="#CE7D63"/>
<path d="M18.4173 9.21094C18.4173 5.69012 21.2715 2.83594 24.7923 2.83594C28.3131 2.83594 31.1673 5.69012 31.1673 9.21094C31.1673 12.7318 28.3131 15.5859 24.7923 15.5859H20.2387C20.0273 15.5859 19.9216 15.5859 19.8326 15.5759C19.0937 15.4927 18.5106 14.9095 18.4273 14.1706C18.4173 14.0817 18.4173 13.976 18.4173 13.7645V9.21094Z" fill="#CE7D63"/>
</svg>
