<svg width="34" height="34" viewBox="0 0 34 34" fill="none" xmlns="http://www.w3.org/2000/svg">
<path fill-rule="evenodd" clip-rule="evenodd" d="M27.6246 13.5467C27.672 19.4145 22.7821 24.8416 16.9143 24.7943C11.0464 24.7469 6.4227 19.243 6.37535 13.3752C6.328 7.50737 11.0464 2.78894 16.9143 2.83629C22.7821 2.88364 27.5773 7.67884 27.6246 13.5467ZM17.7169 7.44014C17.1301 7.4354 16.6506 7.90725 16.6459 8.49403C16.6411 9.08081 17.113 9.56033 17.6998 9.56507C19.4481 9.57918 20.8818 11.0129 20.8959 12.7612C20.9006 13.348 21.3801 13.8198 21.9669 13.8151C22.5537 13.8103 23.0255 13.3308 23.0208 12.744C22.9973 9.83551 20.6254 7.46361 17.7169 7.44014Z" fill="#CE7D63"/>
<path d="M20.0693 25.8067C20.54 27.3117 19.5647 28.8266 18.062 29.1319V31.1694C18.062 31.7562 17.5863 32.2319 16.9995 32.2319C16.4127 32.2319 15.937 31.7562 15.937 31.1694V29.1319C14.4344 28.8266 13.4591 27.3117 13.9297 25.8067L13.9395 25.7765C14.8806 26.0508 15.8722 26.2027 16.9024 26.211C17.9946 26.2198 19.0526 26.0658 20.0588 25.7734C20.0625 25.7845 20.0659 25.7957 20.0693 25.8067Z" fill="#CE7D63"/>
</svg>
