<svg width="34" height="34" viewBox="0 0 34 34" fill="none" xmlns="http://www.w3.org/2000/svg">
<path d="M5.7316 7.78247L7.78051 5.73355C9.71225 3.80181 10.6781 2.83594 11.8784 2.83594C13.0786 2.83594 14.0445 3.80181 15.9762 5.73355L12.5613 9.14841L5.7316 15.9781L5.73158 15.9781C3.79985 14.0464 2.83398 13.0805 2.83398 11.8803C2.83398 10.6801 3.79985 9.71421 5.73159 7.78247L5.7316 7.78247Z" fill="#CE7D63"/>
<path d="M28.2697 26.2227L26.2208 28.2717C24.2891 30.2034 23.3232 31.1693 22.123 31.1693C20.9227 31.1693 19.9569 30.2034 18.0251 28.2717L18.0251 28.2717L24.8548 21.4419L28.2697 18.0271C30.2015 19.9588 31.1673 20.9247 31.1673 22.1249C31.1673 23.3251 30.2015 24.291 28.2697 26.2227Z" fill="#CE7D63"/>
<path d="M16.1508 25.7309L16.1508 25.7309L26.6283 15.2535C25.2023 14.66 23.5133 13.6851 21.916 12.0877C20.3184 10.4902 19.3435 8.80093 18.75 7.3748L8.27232 17.8525L8.27227 17.8525C7.45467 18.6701 7.04584 19.0789 6.69426 19.5297C6.27951 20.0614 5.92393 20.6368 5.6338 21.2456C5.38786 21.7616 5.20502 22.3101 4.83936 23.4071L2.91112 29.1918C2.73117 29.7317 2.87167 30.3268 3.27405 30.7292C3.67642 31.1316 4.27159 31.2721 4.81143 31.0921L10.5962 29.1639C11.6931 28.7982 12.2416 28.6154 12.7577 28.3695C13.3665 28.0793 13.9418 27.7237 14.4736 27.309C14.9243 26.9574 15.3332 26.5486 16.1508 25.7309Z" fill="#CE7D63"/>
<path d="M29.5356 12.3461C31.7112 10.1705 31.7112 6.6432 29.5356 4.46762C27.3601 2.29204 23.8327 2.29204 21.6572 4.46762L20.4005 5.72426C20.4177 5.77622 20.4356 5.82891 20.4541 5.88227C20.9147 7.20989 21.7837 8.95028 23.4186 10.5851C25.0535 12.22 26.7938 13.089 28.1215 13.5496C28.1746 13.5681 28.227 13.5858 28.2788 13.603L29.5356 12.3461Z" fill="#CE7D63"/>
</svg>
