<svg width="34" height="34" viewBox="0 0 34 34" fill="none" xmlns="http://www.w3.org/2000/svg">
<path d="M32.3296 7.31323C31.329 7.74387 30.277 8.04374 29.1997 8.20544C29.7034 8.11909 30.4445 7.21249 30.7395 6.84554C31.1877 6.29202 31.5292 5.66013 31.7468 4.98197C31.7468 4.93161 31.7972 4.85965 31.7468 4.82368C31.7214 4.80982 31.693 4.80256 31.6641 4.80256C31.6352 4.80256 31.6067 4.80982 31.5813 4.82368C30.4115 5.45716 29.1665 5.94065 27.8758 6.26272C27.8308 6.27647 27.7829 6.2777 27.7373 6.26629C27.6917 6.25488 27.65 6.23126 27.6168 6.19797C27.5163 6.07833 27.4081 5.96537 27.293 5.85979C26.7665 5.38811 26.1692 5.00205 25.5229 4.71575C24.6506 4.35784 23.7082 4.20284 22.7672 4.26245C21.854 4.32012 20.9625 4.56504 20.1481 4.98197C19.3461 5.42155 18.6412 6.01872 18.0759 6.73761C17.4812 7.47753 17.0518 8.33623 16.8167 9.25594C16.6228 10.1308 16.6008 11.035 16.752 11.9182C16.752 12.0693 16.752 12.0909 16.6224 12.0693C11.4922 11.3138 7.28304 9.49338 3.84372 5.58637C3.69262 5.41369 3.61347 5.41369 3.49115 5.58637C1.99454 7.86006 2.72126 11.4577 4.59202 13.2349C4.84385 13.4723 5.10288 13.7026 5.3763 13.9184C4.51857 13.8576 3.68179 13.6251 2.91553 13.2349C2.77163 13.1414 2.69248 13.1917 2.68528 13.3644C2.66489 13.6038 2.66489 13.8445 2.68528 14.0839C2.83542 15.2313 3.28758 16.3182 3.99554 17.2335C4.70349 18.1487 5.64184 18.8596 6.71461 19.2933C6.97613 19.4053 7.24863 19.4897 7.52768 19.5451C6.73363 19.7014 5.91923 19.7258 5.11727 19.6171C4.94459 19.5811 4.87983 19.6746 4.94459 19.8401C6.00229 22.7182 8.29756 23.596 9.98125 24.0853C10.2115 24.1213 10.4417 24.1213 10.7008 24.1789C10.7008 24.1789 10.7008 24.1788 10.6576 24.222C10.1611 25.1286 8.15366 25.7402 7.23267 26.0568C5.55163 26.6606 3.75933 26.8914 1.98015 26.7332C1.69954 26.69 1.63478 26.6972 1.56283 26.7332C1.49088 26.7691 1.56283 26.8483 1.64198 26.9202C2.00174 27.1577 2.3615 27.3663 2.73565 27.5678C3.84951 28.1753 5.02707 28.6579 6.24692 29.0069C12.5643 30.7481 19.6732 29.4673 24.4149 24.7545C28.142 21.0561 29.4515 15.9547 29.4515 10.8461C29.4515 10.6518 29.689 10.5367 29.8257 10.436C30.7686 9.70125 31.6 8.83357 32.2937 7.86006C32.4138 7.71495 32.4754 7.53018 32.4663 7.34201C32.4663 7.23408 32.4663 7.25567 32.3296 7.31323Z" fill="#CE7D63"/>
</svg>
