<svg width="34" height="34" viewBox="0 0 34 34" fill="none" xmlns="http://www.w3.org/2000/svg">
<path fill-rule="evenodd" clip-rule="evenodd" d="M7.32574 4.49567C5.66602 6.15539 5.66602 8.82669 5.66602 14.1693V19.8359C5.66602 25.1785 5.66602 27.8498 7.32574 29.5095C8.98547 31.1693 11.6568 31.1693 16.9993 31.1693C22.3419 31.1693 25.0132 31.1693 26.673 29.5095C28.3327 27.8498 28.3327 25.1785 28.3327 19.8359V14.1693C28.3327 8.82669 28.3327 6.15539 26.673 4.49567C25.0132 2.83594 22.3419 2.83594 16.9993 2.83594C11.6568 2.83594 8.98547 2.83594 7.32574 4.49567ZM12.7493 6.02344C12.1625 6.02344 11.6868 6.49914 11.6868 7.08594C11.6868 7.67274 12.1625 8.14844 12.7493 8.14844H21.2493C21.8362 8.14844 22.3118 7.67274 22.3118 7.08594C22.3118 6.49914 21.8362 6.02344 21.2493 6.02344H12.7493ZM16.9993 26.9193C18.5642 26.9193 19.8327 25.6507 19.8327 24.0859C19.8327 22.5211 18.5642 21.2526 16.9993 21.2526C15.4345 21.2526 14.166 22.5211 14.166 24.0859C14.166 25.6507 15.4345 26.9193 16.9993 26.9193Z" fill="#CE7D63"/>
</svg>
