<svg width="36" height="34" viewBox="0 0 36 34" fill="none" xmlns="http://www.w3.org/2000/svg">
<path d="M17.6003 2.45312C25.6449 2.45312 32.1537 8.96193 32.1537 16.9943C32.1537 25.0267 25.6449 31.5477 17.6003 31.5477C9.55568 31.5477 3.04688 25.0389 3.04688 17.0065C3.04688 8.97412 9.55568 2.45312 17.6003 2.45312Z" fill="#E7BEB1"/>
<path d="M17.6016 32.5808C8.99636 32.5808 2 25.5966 2 17.0035C2 8.39823 8.99636 1.41406 17.6016 1.41406C26.2069 1.41406 33.2033 8.39823 33.2033 16.9913C33.2033 25.5844 26.2069 32.5808 17.6016 32.5808ZM30.7533 19.1244C30.3023 18.9781 26.6335 17.8933 22.4528 18.5515C24.1958 23.3295 24.9027 27.2299 25.0368 28.0343C28.0352 26.0232 30.1683 22.8297 30.7533 19.1244ZM22.8062 29.2654C22.6112 28.0953 21.8311 24.0242 19.9663 19.1731C19.9419 19.1853 19.9053 19.1975 19.8809 19.1975C12.3605 21.8181 9.66674 27.0227 9.42296 27.5102C11.6779 29.2654 14.5179 30.3136 17.6016 30.3136C19.4421 30.3258 21.2095 29.948 22.8062 29.2654ZM7.70435 25.9135C8.00907 25.4016 11.6657 19.3559 18.5402 17.1254C18.7108 17.0644 18.8936 17.0157 19.0643 16.9669C18.7352 16.2112 18.3695 15.4555 17.9795 14.712C11.3244 16.6988 4.86436 16.6135 4.2793 16.6013C4.2793 16.7354 4.26711 16.8694 4.26711 17.0035C4.2793 20.4286 5.57131 23.5489 7.70435 25.9135ZM4.55964 14.2854C5.15689 14.2976 10.6418 14.322 16.8825 12.6643C14.6763 8.73952 12.2873 5.44855 11.946 4.97318C8.20409 6.72837 5.42505 10.1656 4.55964 14.2854ZM14.4813 4.07122C14.847 4.55877 17.2725 7.84973 19.4543 11.8598C24.1958 10.0803 26.1947 7.39875 26.4385 7.05747C24.0861 4.97318 20.9901 3.70555 17.6016 3.70555C16.529 3.70555 15.4808 3.83963 14.4813 4.07122ZM27.9133 8.59325C27.633 8.9711 25.4024 11.8355 20.4782 13.8466C20.7829 14.4804 21.0876 15.1264 21.368 15.7724C21.4655 16.004 21.563 16.2356 21.6605 16.455C26.0972 15.8943 30.4974 16.7963 30.9361 16.8816C30.8996 13.7491 29.7782 10.8604 27.9133 8.59325Z" fill="#CE7D63"/>
</svg>
