<svg width="34" height="34" viewBox="0 0 34 34" fill="none" xmlns="http://www.w3.org/2000/svg">
<path d="M18.4677 5.1757L17.6559 5.65647C16.7642 6.18455 16.3183 6.44859 15.8272 6.51011C15.336 6.57163 14.8552 6.42366 13.8934 6.12771L13.0178 5.85828C9.63349 4.81684 7.94131 4.29612 6.92413 5.22711C5.90696 6.15809 6.23842 7.92422 6.90136 11.4565L7.07287 12.3703C7.26126 13.3741 7.35545 13.876 7.24372 14.3662C7.13198 14.8565 6.82697 15.2797 6.21695 16.1262L5.66157 16.8967C3.51487 19.8753 2.44152 21.3646 2.96517 22.5992C3.48881 23.8338 5.26265 23.9962 8.81034 24.3209L9.72819 24.4049C10.7363 24.4972 11.2404 24.5434 11.6625 24.7849C12.0846 25.0264 12.377 25.4359 12.9617 26.2549L13.494 27.0006C15.5516 29.8829 16.5805 31.324 17.9213 31.1561C19.2621 30.9882 20.0269 29.3224 21.5566 25.9908L21.9523 25.1289C22.1745 24.645 22.3398 24.2848 22.4982 24.0027L28.9994 30.5039C29.4143 30.9188 30.087 30.9188 30.502 30.5039C30.9169 30.089 30.9169 29.4162 30.502 29.0013L24.2236 22.723C24.3964 22.6601 24.5894 22.5925 24.8066 22.5164L25.691 22.2067C29.1094 21.0095 30.8186 20.4109 31.1236 19.0725C31.4286 17.734 30.1275 16.5422 27.5252 14.1584L26.8519 13.5417C26.1124 12.8643 25.7427 12.5256 25.5508 12.0734C25.359 11.6211 25.3668 11.1064 25.3825 10.0772L25.3967 9.14001C25.4518 5.51782 25.4793 3.70673 24.327 3.04746C23.1747 2.3882 21.6057 3.31737 18.4677 5.1757Z" fill="#CE7D63"/>
</svg>
