<svg width="34" height="34" viewBox="0 0 34 34" fill="none" xmlns="http://www.w3.org/2000/svg">
<path fill-rule="evenodd" clip-rule="evenodd" d="M31.1673 17.0026C31.1673 24.8266 24.8247 31.1693 17.0007 31.1693C9.17662 31.1693 2.83398 24.8266 2.83398 17.0026C2.83398 9.17857 9.17662 2.83594 17.0007 2.83594C24.8247 2.83594 31.1673 9.17857 31.1673 17.0026ZM19.1087 9.13431C19.6755 9.28618 20.0119 9.86879 19.86 10.4356L16.1934 24.1195C16.0416 24.6864 15.459 25.0227 14.8921 24.8708C14.3253 24.719 13.989 24.1364 14.1408 23.5696L17.8074 9.88561C17.9593 9.3188 18.5419 8.98243 19.1087 9.13431ZM21.2077 12.0013C21.6226 11.5864 22.2954 11.5864 22.7103 12.0013L23.0054 12.2965C23.9055 13.1964 24.6561 13.947 25.1718 14.6229C25.7161 15.3363 26.0979 16.0901 26.0979 17.0026C26.0979 17.9151 25.7161 18.6689 25.1718 19.3823C24.6561 20.0582 23.9055 20.8087 23.0055 21.7087L22.7103 22.0039C22.2954 22.4188 21.6226 22.4188 21.2077 22.0039C20.7928 21.589 20.7928 20.9162 21.2077 20.5013L21.4507 20.2582C22.4164 19.2926 23.0635 18.6423 23.4823 18.0934C23.8824 17.5689 23.9729 17.2637 23.9729 17.0026C23.9729 16.7415 23.8824 16.4363 23.4823 15.9119C23.0635 15.3629 22.4164 14.7127 21.4507 13.747L21.2077 13.5039C20.7928 13.089 20.7928 12.4162 21.2077 12.0013ZM11.2913 12.0013C11.7062 11.5864 12.379 11.5864 12.7939 12.0013C13.2088 12.4162 13.2088 13.089 12.7939 13.5039L12.5508 13.747C11.5851 14.7127 10.9381 15.3629 10.5192 15.9119C10.1191 16.4363 10.0287 16.7415 10.0287 17.0026C10.0287 17.2637 10.1191 17.5689 10.5192 18.0934C10.9381 18.6423 11.5851 19.2926 12.5508 20.2582L12.7939 20.5013C13.2088 20.9162 13.2088 21.589 12.7939 22.0039C12.379 22.4188 11.7062 22.4188 11.2913 22.0039L10.9961 21.7088C10.0961 20.8088 9.34552 20.0583 8.82981 19.3823C8.28548 18.6689 7.90369 17.9151 7.90369 17.0026C7.90369 16.0901 8.28548 15.3363 8.82981 14.6229C9.34552 13.947 10.0961 13.1965 10.9961 12.2965L11.2913 12.0013Z" fill="#CE7D63"/>
</svg>
