<svg width="34" height="34" viewBox="0 0 34 34" fill="none" xmlns="http://www.w3.org/2000/svg">
<path d="M12.277 17.0026C12.277 14.3947 14.3918 12.28 17.0013 12.28C19.6108 12.28 21.7267 14.3947 21.7267 17.0026C21.7267 19.6105 19.6108 21.7252 17.0013 21.7252C14.3918 21.7252 12.277 19.6105 12.277 17.0026ZM9.72254 17.0026C9.72254 21.0202 12.9812 24.277 17.0013 24.277C21.0214 24.277 24.2801 21.0202 24.2801 17.0026C24.2801 12.9849 21.0214 9.72817 17.0013 9.72817C12.9812 9.72817 9.72254 12.9849 9.72254 17.0026ZM22.8672 9.43974C22.8671 9.77597 22.9667 10.1047 23.1535 10.3843C23.3403 10.664 23.6059 10.882 23.9166 11.0107C24.2274 11.1395 24.5694 11.1733 24.8994 11.1079C25.2294 11.0424 25.5325 10.8806 25.7705 10.643C26.0085 10.4053 26.1706 10.1025 26.2364 9.77274C26.3022 9.443 26.2686 9.10117 26.14 8.79049C26.0114 8.4798 25.7935 8.21421 25.5138 8.0273C25.2342 7.84039 24.9053 7.74056 24.5689 7.74042H24.5682C24.1173 7.74063 23.6848 7.91971 23.3659 8.23833C23.0469 8.55695 22.8676 8.98906 22.8672 9.43974ZM11.2745 28.5339C9.89253 28.471 9.14136 28.2409 8.64217 28.0465C7.98036 27.789 7.50816 27.4824 7.01169 26.9869C6.51522 26.4914 6.2079 26.0199 5.95139 25.3585C5.75679 24.8598 5.52659 24.1089 5.46377 22.7277C5.39505 21.2344 5.38132 20.7858 5.38132 17.0027C5.38132 13.2195 5.39618 12.7722 5.46377 11.2777C5.5267 9.89647 5.75861 9.147 5.95139 8.64686C6.20904 7.98545 6.5159 7.51353 7.01169 7.01736C7.50748 6.52119 7.97923 6.21406 8.64217 5.9577C9.14113 5.76322 9.89253 5.53315 11.2745 5.47036C12.7687 5.40168 13.2176 5.38797 17.0013 5.38797C20.785 5.38797 21.2343 5.40282 22.7298 5.47036C24.1118 5.53326 24.8617 5.76503 25.3621 5.9577C26.0239 6.21406 26.4961 6.52187 26.9926 7.01736C27.4891 7.51285 27.7953 7.98545 28.0529 8.64686C28.2475 9.14553 28.4777 9.89647 28.5405 11.2777C28.6093 12.7722 28.623 13.2195 28.623 17.0027C28.623 20.7858 28.6093 21.2332 28.5405 22.7277C28.4776 24.1089 28.2463 24.8596 28.0529 25.3585C27.7953 26.0199 27.4884 26.4918 26.9926 26.9869C26.4968 27.4819 26.0239 27.789 25.3621 28.0465C24.8632 28.241 24.1118 28.4711 22.7298 28.5339C21.2356 28.6025 20.7867 28.6163 17.0013 28.6163C13.2159 28.6163 12.7683 28.6025 11.2745 28.5339ZM11.1572 2.92173C9.64815 2.99041 8.61699 3.22954 7.71648 3.57974C6.78387 3.94139 5.99437 4.42657 5.20544 5.21378C4.41651 6.00099 3.93229 6.79126 3.57042 7.72331C3.22001 8.62386 2.98074 9.65383 2.91202 11.1619C2.84216 12.6725 2.82617 13.1554 2.82617 17.0026C2.82617 20.8498 2.84216 21.3327 2.91202 22.8432C2.98074 24.3514 3.22001 25.3813 3.57042 26.2818C3.93229 27.2133 4.41662 28.0045 5.20544 28.7914C5.99426 29.5782 6.78387 30.0627 7.71648 30.4254C8.6187 30.7756 9.64815 31.0147 11.1572 31.0834C12.6694 31.1521 13.1518 31.1692 17.0013 31.1692C20.8508 31.1692 21.334 31.1532 22.8454 31.0834C24.3546 31.0147 25.385 30.7756 26.2861 30.4254C27.2182 30.0627 28.0082 29.5786 28.7972 28.7914C29.5861 28.0041 30.0693 27.2133 30.4322 26.2818C30.7826 25.3813 31.023 24.3513 31.0906 22.8432C31.1593 21.3315 31.1753 20.8498 31.1753 17.0026C31.1753 13.1554 31.1593 12.6725 31.0906 11.1619C31.0219 9.65371 30.7826 8.62329 30.4322 7.72331C30.0693 6.79183 29.5848 6.00224 28.7972 5.21378C28.0095 4.42532 27.2182 3.94139 26.2873 3.57974C25.385 3.22954 24.3544 2.98928 22.8466 2.92173C21.3351 2.85305 20.8519 2.83594 17.0024 2.83594C13.1529 2.83594 12.6694 2.85192 11.1572 2.92173Z" fill="#CE7D63"/>
<path d="M12.277 17.0026C12.277 14.3947 14.3918 12.28 17.0013 12.28C19.6108 12.28 21.7267 14.3947 21.7267 17.0026C21.7267 19.6105 19.6108 21.7252 17.0013 21.7252C14.3918 21.7252 12.277 19.6105 12.277 17.0026ZM9.72254 17.0026C9.72254 21.0202 12.9812 24.277 17.0013 24.277C21.0214 24.277 24.2801 21.0202 24.2801 17.0026C24.2801 12.9849 21.0214 9.72817 17.0013 9.72817C12.9812 9.72817 9.72254 12.9849 9.72254 17.0026ZM22.8672 9.43974C22.8671 9.77597 22.9667 10.1047 23.1535 10.3843C23.3403 10.664 23.6059 10.882 23.9166 11.0107C24.2274 11.1395 24.5694 11.1733 24.8994 11.1079C25.2294 11.0424 25.5325 10.8806 25.7705 10.643C26.0085 10.4053 26.1706 10.1025 26.2364 9.77274C26.3022 9.443 26.2686 9.10117 26.14 8.79049C26.0114 8.4798 25.7935 8.21421 25.5138 8.0273C25.2342 7.84039 24.9053 7.74056 24.5689 7.74042H24.5682C24.1173 7.74063 23.6848 7.91971 23.3659 8.23833C23.0469 8.55695 22.8676 8.98906 22.8672 9.43974ZM11.2745 28.5339C9.89253 28.471 9.14136 28.2409 8.64217 28.0465C7.98036 27.789 7.50816 27.4824 7.01169 26.9869C6.51522 26.4914 6.2079 26.0199 5.95139 25.3585C5.75679 24.8598 5.52659 24.1089 5.46377 22.7277C5.39505 21.2344 5.38132 20.7858 5.38132 17.0027C5.38132 13.2195 5.39618 12.7722 5.46377 11.2777C5.5267 9.89647 5.75861 9.147 5.95139 8.64686C6.20904 7.98545 6.5159 7.51353 7.01169 7.01736C7.50748 6.52119 7.97923 6.21406 8.64217 5.9577C9.14113 5.76322 9.89253 5.53315 11.2745 5.47036C12.7687 5.40168 13.2176 5.38797 17.0013 5.38797C20.785 5.38797 21.2343 5.40282 22.7298 5.47036C24.1118 5.53326 24.8617 5.76503 25.3621 5.9577C26.0239 6.21406 26.4961 6.52187 26.9926 7.01736C27.4891 7.51285 27.7953 7.98545 28.0529 8.64686C28.2475 9.14553 28.4777 9.89647 28.5405 11.2777C28.6093 12.7722 28.623 13.2195 28.623 17.0027C28.623 20.7858 28.6093 21.2332 28.5405 22.7277C28.4776 24.1089 28.2463 24.8596 28.0529 25.3585C27.7953 26.0199 27.4884 26.4918 26.9926 26.9869C26.4968 27.4819 26.0239 27.789 25.3621 28.0465C24.8632 28.241 24.1118 28.4711 22.7298 28.5339C21.2356 28.6025 20.7867 28.6163 17.0013 28.6163C13.2159 28.6163 12.7683 28.6025 11.2745 28.5339ZM11.1572 2.92173C9.64815 2.99041 8.61699 3.22954 7.71648 3.57974C6.78387 3.94139 5.99437 4.42657 5.20544 5.21378C4.41651 6.00099 3.93229 6.79126 3.57042 7.72331C3.22001 8.62386 2.98074 9.65383 2.91202 11.1619C2.84216 12.6725 2.82617 13.1554 2.82617 17.0026C2.82617 20.8498 2.84216 21.3327 2.91202 22.8432C2.98074 24.3514 3.22001 25.3813 3.57042 26.2818C3.93229 27.2133 4.41662 28.0045 5.20544 28.7914C5.99426 29.5782 6.78387 30.0627 7.71648 30.4254C8.6187 30.7756 9.64815 31.0147 11.1572 31.0834C12.6694 31.1521 13.1518 31.1692 17.0013 31.1692C20.8508 31.1692 21.334 31.1532 22.8454 31.0834C24.3546 31.0147 25.385 30.7756 26.2861 30.4254C27.2182 30.0627 28.0082 29.5786 28.7972 28.7914C29.5861 28.0041 30.0693 27.2133 30.4322 26.2818C30.7826 25.3813 31.023 24.3513 31.0906 22.8432C31.1593 21.3315 31.1753 20.8498 31.1753 17.0026C31.1753 13.1554 31.1593 12.6725 31.0906 11.1619C31.0219 9.65371 30.7826 8.62329 30.4322 7.72331C30.0693 6.79183 29.5848 6.00224 28.7972 5.21378C28.0095 4.42532 27.2182 3.94139 26.2873 3.57974C25.385 3.22954 24.3544 2.98928 22.8466 2.92173C21.3351 2.85305 20.8519 2.83594 17.0024 2.83594C13.1529 2.83594 12.6694 2.85192 11.1572 2.92173Z" fill="#CE7D63"/>
</svg>
